<svg xmlns="http://www.w3.org/2000/svg" width="30" height="30" viewBox="0 0 30 30"><defs><clipPath id="clip-path"><path id="사각형_6692" data-name="사각형 6692" transform="translate(.371)" fill="none" d="M0 0h30v30H0z"/></clipPath></defs><g id="그룹_22173" data-name="그룹 22173" transform="translate(-.371)" clip-path="url(#clip-path)"><g id="그룹_22175" data-name="그룹 22175" transform="translate(3.585 4.231)"><path id="패스_4786" data-name="패스 4786" d="M26 8.916L15.773 13.08a2.133 2.133 0 01-1.543.021L3.968 9.081c-.51-.2-.49-.742.036-.956L14.226 3.96a2.143 2.143 0 011.544-.021L26.032 7.96c.51.2.49.741-.036.956" transform="translate(-3.597 -3.805)" fill="#ea2126"/><path id="패스_4787" data-name="패스 4787" d="M22.403 5.111L12.176 9.275a2.133 2.133 0 01-1.543.021L.371 5.276c-.51-.2-.49-.742.036-.956L10.629.155a2.143 2.143 0 011.544-.021l10.262 4.021c.51.2.49.74-.032.956z" fill="none" stroke="#000" stroke-width="1.5"/><path id="패스_4788" data-name="패스 4788" d="M22.417 10.572l-10.223 4.7a1.907 1.907 0 01-1.543.024L.389 10.758" fill="none" stroke="#000" stroke-linecap="round" stroke-width="1.5"/><path id="패스_4789" data-name="패스 4789" d="M22.417 16.45l-10.223 4.906a1.835 1.835 0 01-1.543.025L.389 16.644" fill="none" stroke="#000" stroke-linecap="round" stroke-width="1.5"/></g></g></svg>