<svg xmlns="http://www.w3.org/2000/svg" width="30" height="30" viewBox="0 0 30 30"><defs><clipPath id="clip-path"><path id="사각형_6691" data-name="사각형 6691" transform="translate(.371)" fill="none" d="M0 0h30v30H0z"/></clipPath></defs><g id="그룹_22171" data-name="그룹 22171" transform="translate(-.371)" clip-path="url(#clip-path)"><path id="패스_4783" data-name="패스 4783" d="M3.529 25.457a.963.963 0 01-.954-1.05 12.164 12.164 0 0112.011-11.272 12.164 12.164 0 0112.012 11.272.964.964 0 01-.955 1.05z" fill="none" stroke="#000" stroke-width="1.5"/><path id="패스_4784" data-name="패스 4784" d="M20.063 9.745a5.064 5.064 0 11-10.125 0 5.064 5.064 0 1110.125 0" transform="translate(-.414)" fill="#ea2126"/><path id="패스_4785" data-name="패스 4785" d="M19.649 9.745a5.064 5.064 0 11-10.125 0 5.064 5.064 0 1110.125 0z" fill="none" stroke="#000" stroke-width="1.5"/></g></svg>