<svg xmlns="http://www.w3.org/2000/svg" width="430" height="220" viewBox="0 0 430 220"><defs><linearGradient id="linear-gradient" x1="-.091" y1=".463" x2="1.056" y2=".474" gradientUnits="objectBoundingBox"><stop offset="0" stop-color="#ff83c1"/><stop offset=".488" stop-color="#ea2126"/><stop offset="1" stop-color="#faa168"/></linearGradient></defs><g id="그룹_21240" data-name="그룹 21240" transform="translate(184.781 91.484)"><path id="패스_2832" data-name="패스 2832" d="M321.181 220.5a109.087 109.087 0 01-69.2-24.847 57.277 57.277 0 00-72.956 0A109.348 109.348 0 01.5 110.284C.616 49.749 49.659.5 109.825.5h.419a109.1 109.1 0 0168.94 24.978A57.1 57.1 0 00215.5 38.553a57.107 57.107 0 0036.317-13.074A109.1 109.1 0 01320.757.5h.419C381.342.5 430.384 49.749 430.5 110.284a109.623 109.623 0 01-31.943 77.923 108.259 108.259 0 01-77.376 32.293" transform="translate(-185.281 -91.984)" opacity=".669" fill="url(#linear-gradient)"/><text id="IMC" transform="translate(.218 34.515)" fill="#fff" font-size="40" font-family="BasicSans-Bold,Basic Sans,'basic-sans',sans-serif,'Malgun Gothic',Dotum,'돋움',AppleGothicNeoSD,'Apple SD 산돌고딕 Neo','굴림',arial,sans-serif" font-weight="700" letter-spacing="-.02em"><tspan x="0" y="0">IMC</tspan></text></g></svg>