<svg xmlns="http://www.w3.org/2000/svg" width="40" height="40" viewBox="0 0 40 40"><defs><clipPath id="clip-path"><path id="사각형_6692" data-name="사각형 6692" fill="none" d="M0 0h40v40H0z"/></clipPath></defs><g id="그룹_22173" data-name="그룹 22173" clip-path="url(#clip-path)"><g id="그룹_22175" data-name="그룹 22175" transform="translate(5.333 5.641)"><path id="패스_4786" data-name="패스 4786" d="M33.462 10.619l-13.63 5.553a2.844 2.844 0 01-2.057.028L4.092 10.839c-.68-.267-.653-.989.048-1.274l13.629-5.553a2.857 2.857 0 012.059-.028L33.51 9.345c.68.267.653.988-.048 1.274" transform="translate(-3.597 -3.805)" fill="#ea2126"/><path id="패스_4787" data-name="패스 4787" d="M29.865 6.814l-13.63 5.553a2.844 2.844 0 01-2.057.028L.495 7.034c-.68-.267-.653-.989.048-1.274L14.172.207a2.857 2.857 0 012.059-.028L29.913 5.54c.68.267.654.988-.048 1.274z" fill="none" stroke="#000" stroke-width="2.8"/><path id="패스_4788" data-name="패스 4788" d="M29.889 14.096l-13.631 6.27a2.542 2.542 0 01-2.057.032L.518 14.345" fill="none" stroke="#000" stroke-linecap="round" stroke-width="2.8"/><path id="패스_4789" data-name="패스 4789" d="M29.889 21.933l-13.631 6.545a2.446 2.446 0 01-2.057.033L.518 22.192" fill="none" stroke="#000" stroke-linecap="round" stroke-width="2.8"/></g></g></svg>