<svg xmlns="http://www.w3.org/2000/svg" width="40" height="40" viewBox="0 0 40 40"><defs><clipPath id="clip-path"><path id="사각형_6691" data-name="사각형 6691" fill="none" d="M0 0h40v40H0z"/></clipPath></defs><g id="그룹_22171" data-name="그룹 22171" clip-path="url(#clip-path)"><path id="패스_4783" data-name="패스 4783" d="M5.257 33.942a1.284 1.284 0 01-1.272-1.4 16.218 16.218 0 0116.01-15.029 16.219 16.219 0 0116.021 15.029 1.285 1.285 0 01-1.273 1.4z" fill="none" stroke="#000" stroke-width="2.8"/><path id="패스_4784" data-name="패스 4784" d="M23.438 11.479a6.846 6.846 0 01-6.751 6.935 6.845 6.845 0 01-6.749-6.935 6.845 6.845 0 016.749-6.935 6.846 6.846 0 016.751 6.935" transform="translate(3.313 1.515)" fill="#ea2126"/><path id="패스_4785" data-name="패스 4785" d="M26.751 12.994A6.846 6.846 0 0120 19.929a6.845 6.845 0 01-6.749-6.935A6.845 6.845 0 0120 6.059a6.846 6.846 0 016.751 6.935z" fill="none" stroke="#000" stroke-width="2.8"/></g></svg>