<svg width="12" height="12" viewBox="0 0 12 12" fill="none" xmlns="http://www.w3.org/2000/svg">
<g clip-path="url(#clip0)">
<path d="M6 1C8.76 1 11 3.24 11 6C11 8.76 8.76 11 6 11C3.24 11 1 8.76 1 6C1 3.24 3.24 1 6 1ZM6 0C2.69 0 0 2.69 0 6C0 9.31 2.69 12 6 12C9.31 12 12 9.31 12 6C12 2.69 9.31 0 6 0Z" fill="#B79A87"/>
<path d="M6.70002 6.51002C6.70002 6.84002 6.44002 7.10002 6.11002 7.10002H3.99002C3.66002 7.10002 3.40002 6.83002 3.40002 6.51002C3.40002 6.18002 3.66002 5.92002 3.99002 5.92002H5.52002V3.49002C5.52002 3.16002 5.78002 2.90002 6.11002 2.90002C6.44002 2.90002 6.70002 3.16002 6.70002 3.49002V6.51002Z" fill="#B79A87"/>
</g>
<defs>
<clipPath id="clip0">
<rect width="12" height="12" fill="white"/>
</clipPath>
</defs>
</svg>
